<svg width="24" height="20" viewBox="0 0 24 20" fill="none" xmlns="http://www.w3.org/2000/svg">
<path d="M7.91422 18.8671L7.91478 18.8671C8.8847 18.8708 9.85338 18.8701 10.8241 18.8694C11.2129 18.8691 11.6021 18.8688 11.9918 18.8688H11.9927C12.4474 18.8688 12.9014 18.8692 13.3549 18.8696C14.2607 18.8704 15.165 18.8712 16.0706 18.8688M7.91422 18.8671L16.0724 19.5688M7.91422 18.8671C7.49641 18.8658 7.2076 18.7318 7.02464 18.5498C6.84188 18.368 6.70634 18.0802 6.70381 17.6614L6.70381 17.6614C6.70175 17.3254 6.6982 16.992 6.69467 16.6604C6.68311 15.5746 6.67176 14.5087 6.71371 13.4403L6.71372 13.44C6.79312 11.3961 7.74529 9.89616 9.52163 8.85189C11.1679 9.73408 12.8674 9.73557 14.5092 8.83621C16.3506 9.88326 17.2872 11.4312 17.347 13.5386L17.347 13.5389C17.3789 14.6487 17.3686 15.759 17.3581 16.8846C17.3559 17.1201 17.3538 17.3564 17.3519 17.5934M7.91422 18.8671L18.0519 17.5988M16.0706 18.8688L16.0724 19.5688M16.0706 18.8688C16.0706 18.8688 16.0705 18.8688 16.0704 18.8688L16.0724 19.5688M16.0706 18.8688C16.5461 18.8675 16.8457 18.7282 17.0261 18.5492C17.2062 18.3705 17.3482 18.072 17.3519 17.5934M16.0724 19.5688C17.3006 19.5654 18.0424 18.8348 18.0519 17.5988M17.3519 17.5934L18.0519 17.5988M17.3519 17.5934C17.3519 17.5934 17.3519 17.5934 17.3519 17.5934L18.0519 17.5988M9.45295 8.81213C9.45217 8.81192 9.45141 8.81171 9.45067 8.8115C9.44368 8.80952 9.44002 8.80799 9.44002 8.80799C9.44002 8.80799 9.44415 8.80972 9.4528 8.81448L9.45395 8.81239L9.45295 8.81213ZM9.45295 8.81213L9.51621 8.69743L9.5166 8.69672L9.78997 8.20103L9.45295 8.81213Z" stroke="white" stroke-width="1.4"/>
<path d="M11.9379 8.27443C14.1441 8.2918 15.9126 6.57017 15.9247 4.39337L11.9379 8.27443ZM11.9379 8.27443C9.76735 8.25792 8.06406 6.48765 8.0797 4.26568M11.9379 8.27443L8.0797 4.26568M8.0797 4.26568C8.09446 2.14795 9.87679 0.414157 12.0248 0.429792L8.0797 4.26568ZM12.0198 1.12977C13.7997 1.14246 15.1953 2.53178 15.2252 4.31188L15.2247 4.38946C15.2148 6.17022 13.7713 7.58884 11.9434 7.57445L11.9433 7.57445C10.1747 7.561 8.76665 6.12188 8.77968 4.27061L8.77968 4.27056C8.79169 2.5485 10.2493 1.11689 12.0197 1.12977L12.0198 1.12977Z" stroke="white" stroke-width="1.4"/>
<path d="M0.706258 15.785C0.708226 16.0253 0.710205 16.2668 0.711439 16.51L0.706258 15.785ZM0.706258 15.785C0.699812 14.998 0.693478 14.2249 0.713804 13.4495L0.706258 15.785ZM1.39761 17.1974C1.12084 17.1959 0.966087 17.1118 0.881567 17.0272C0.796896 16.9424 0.712865 16.7871 0.711439 16.5101L1.39761 17.1974ZM0.713813 13.4492C0.752035 12.0198 1.37332 10.9583 2.59325 10.1981L0.713813 13.4492Z" stroke="white" stroke-width="1.4"/>
<path d="M18.62 10.5413C19.0617 11.5063 19.2712 12.5363 19.2748 13.6137L18.62 10.5413ZM18.62 10.5413C19.5493 10.7752 20.499 10.662 21.4151 10.1935C22.6584 10.986 23.2798 12.0709 23.2939 13.5361L23.2939 13.5362C23.3034 14.5144 23.2991 15.4946 23.2939 16.479L23.2939 16.4793C23.2924 16.7798 23.2045 16.9428 23.1199 17.0287C23.0367 17.1132 22.882 17.1991 22.5946 17.2003L18.62 10.5413Z" stroke="white" stroke-width="1.4"/>
<path d="M6.61973 6.55994C6.61711 7.76069 5.66031 8.71751 4.44842 8.72015M6.61973 6.55994L7.31973 6.56147L6.61973 6.55994ZM6.61973 6.55994C6.62238 5.33711 5.65007 4.36284 4.43691 4.36284C3.23539 4.36284 2.26382 5.33665 2.26712 6.57171L4.44842 8.72015M4.44842 8.72015C3.23586 8.72279 2.27041 7.76193 2.26712 6.57175L4.44842 8.72015Z" stroke="white" stroke-width="1.4"/>
<path d="M17.3856 6.49391L17.3852 5.85717H16.7687C17.0796 4.59065 18.2171 3.6555 19.5728 3.66289C21.1571 3.67157 22.4287 4.94586 22.4356 6.53372C22.4434 8.13896 21.1623 9.42454 19.5519 9.42801C17.9781 9.43149 16.6865 8.13809 16.6856 6.55717L16.7408 6.55714L17.3848 6.5568C17.3848 6.55679 17.3848 6.55679 17.3848 6.55679C17.3847 6.53576 17.385 6.5148 17.3856 6.49391ZM17.3856 6.49391L17.3856 6.55679C17.3863 7.75348 18.3664 8.73063 19.5504 8.72801H19.5504C20.7757 8.72537 21.7416 7.75277 21.7356 6.53713L21.7356 6.53678C21.7304 5.33186 20.7684 4.36945 19.5689 4.36287C18.3871 4.35644 17.418 5.30077 17.3856 6.49391Z" stroke="white" stroke-width="1.4"/>
</svg>
