<svg width="24" height="20" viewBox="0 0 24 20" fill="none" xmlns="http://www.w3.org/2000/svg">
<path d="M7.91451 18.7671L7.91515 18.7671C8.88482 18.7708 9.85313 18.7701 10.8238 18.7694C11.2127 18.7691 11.6019 18.7688 11.9918 18.7688H11.9927C12.4476 18.7688 12.9017 18.7692 13.3553 18.7696C14.261 18.7704 15.1649 18.7712 16.0704 18.7688M7.91451 18.7671L16.0724 19.5688M7.91451 18.7671C7.51884 18.7659 7.25668 18.6396 7.09515 18.4789C6.93386 18.3184 6.80619 18.0574 6.80379 17.6608L6.80379 17.6608M7.91451 18.7671L6.80379 17.6608M16.0704 18.7688L16.0724 19.5688M16.0704 18.7688C16.0703 18.7688 16.0702 18.7688 16.0701 18.7688L16.0724 19.5688M16.0704 18.7688C16.526 18.7675 16.798 18.6346 16.9556 18.4782C17.1128 18.3222 17.2484 18.0513 17.2519 17.5926M16.0724 19.5688C17.3006 19.5654 18.0423 18.8348 18.0519 17.5988M17.2519 17.5926C17.2519 17.5926 17.2519 17.5926 17.2519 17.5926L18.0519 17.5988M17.2519 17.5926C17.2537 17.3552 17.2559 17.1187 17.2581 16.883C17.2686 15.7575 17.2789 14.6495 17.247 13.5418L17.247 13.5415C17.1888 11.4878 16.2873 9.98009 14.5078 8.95071M17.2519 17.5926L18.0519 17.5988M18.0519 17.5988L14.5078 8.95071M14.5078 8.95071C14.5526 8.92666 14.5974 8.90195 14.6421 8.87658M14.5078 8.95071L18.0467 13.5188C17.9798 11.1596 16.9028 9.38758 14.8434 8.22101C14.6488 8.11069 14.4864 8.04554 14.2484 8.18018M14.5078 8.95071C14.4883 8.93944 14.4687 8.92823 14.4491 8.91708L14.4488 8.91692C14.4093 8.89454 14.3944 8.88776 14.3911 8.88635C14.3901 8.88592 14.4124 8.89557 14.4513 8.90102C14.4533 8.9013 14.4553 8.90156 14.4573 8.90181C14.4575 8.90182 14.4576 8.90184 14.4577 8.90185C14.4982 8.90679 14.5415 8.90518 14.5822 8.89644C14.6189 8.88856 14.6397 8.87788 14.6421 8.87658M14.5078 8.95071C12.8679 9.83062 11.1681 9.82931 9.52433 8.96653M14.6421 8.87658C14.6425 8.87639 14.6428 8.87619 14.6432 8.87599L14.5577 8.72534L14.5575 8.7251L14.2484 8.18018M14.6421 8.87658C14.6422 8.87654 14.6423 8.8765 14.6423 8.87648L14.5572 8.72612L14.5571 8.72588L14.2484 8.18018M14.2484 8.18018C12.7709 9.01841 11.2752 9.02015 9.78995 8.20103M9.78995 8.20103L9.51706 8.69754L9.51667 8.69826L9.4049 8.90161C9.41921 8.9071 9.46358 8.92182 9.5288 8.9199C9.57988 8.9184 9.61653 8.90734 9.63342 8.90108C9.63374 8.90096 9.63405 8.90084 9.63436 8.90073C9.6406 8.89838 9.64388 8.89679 9.64388 8.89678C9.64388 8.89677 9.64098 8.89817 9.63491 8.90168L9.63405 8.90217C9.59712 8.92343 9.56055 8.94488 9.52433 8.96653M9.78995 8.20103C9.57976 8.0855 9.42602 8.09853 9.23493 8.20884L9.40382 8.90119L9.51619 8.69743L9.51658 8.69672L9.78995 8.20103ZM9.52433 8.96653C7.80619 9.99336 6.89089 11.4549 6.81363 13.4439M9.52433 8.96653L6.81363 13.4439M6.80379 17.6608C6.80173 17.3238 6.79817 16.9896 6.79464 16.6576C6.78308 15.5724 6.77177 14.5099 6.81361 13.4442L6.81363 13.4439M6.80379 17.6608L6.81363 13.4439" stroke="#054580" stroke-width="1.6"/>
<path d="M12.0191 1.22977C13.7439 1.24206 15.0956 2.58673 15.1252 4.31247L15.1248 4.3889C15.1151 6.11308 13.7181 7.48842 11.9442 7.47445L11.944 7.47445C10.2329 7.46144 8.86704 6.06962 8.87969 4.27131L8.87969 4.27126C8.89131 2.60572 10.3025 1.21728 12.019 1.22977L12.0191 1.22977Z" stroke="#054580" stroke-width="1.6"/>
<path d="M5.2822 10.6698C5.00956 11.3002 4.82314 11.9678 4.73415 12.6745C4.66296 13.2364 4.67176 13.8323 4.67947 14.3547C4.68229 14.5455 4.68496 14.7266 4.68354 14.8926L5.2822 10.6698ZM5.2822 10.6698C4.38584 10.8639 3.47578 10.7431 2.59901 10.3127C1.43791 11.0534 0.850592 12.0756 0.813778 13.4518L5.2822 10.6698ZM4.68082 17.0998C4.68071 17.0475 4.68059 16.9952 4.68048 16.9428C4.67899 16.2674 4.67747 15.5785 4.68354 14.8928L4.68082 17.0998ZM4.68082 17.0998C3.585 17.1014 2.49127 17.1026 1.39832 17.0974C1.14248 17.0961 1.01479 17.0191 0.952328 16.9565C0.889714 16.8938 0.812757 16.7656 0.811438 16.5096L4.68082 17.0998ZM0.806248 15.783C0.808218 16.0236 0.8102 16.2655 0.811437 16.5095L0.806248 15.783ZM0.806248 15.783C0.799806 14.9965 0.793493 14.2256 0.813769 13.4522L0.806248 15.783ZM5.29145 17.104C5.29306 17.104 5.29391 17.1041 5.29391 17.1041L5.29145 17.104Z" stroke="#054580" stroke-width="1.6"/>
<path d="M18.7915 10.6825C19.1843 11.608 19.3713 12.5901 19.3748 13.6133L18.7915 10.6825ZM18.7915 10.6825C19.6638 10.8569 20.5511 10.7345 21.409 10.3085C22.5929 11.0806 23.1803 12.1257 23.1939 13.5371L23.1939 13.5371C23.2034 14.5146 23.1991 15.494 23.1939 16.4785L23.1939 16.4788C23.1925 16.7594 23.111 16.8952 23.0486 16.9585C22.9879 17.0203 22.8609 17.0992 22.5946 17.1003L18.7915 10.6825ZM22.5945 17.1003C21.679 17.1033 20.7642 17.1026 19.8356 17.1019C19.6828 17.1018 19.5296 17.1016 19.376 17.1015C19.3762 16.9148 19.3763 16.7286 19.3765 16.5428C19.3774 15.5588 19.3784 14.5856 19.3748 13.6136L22.5945 17.1003Z" stroke="#054580" stroke-width="1.6"/>
<path d="M6.51972 6.55973C6.51722 7.70504 5.60539 8.61763 4.44818 8.62015M6.51972 6.55973L7.31972 6.56147L6.51972 6.55973ZM6.51972 6.55973C6.52224 5.39189 5.59443 4.46284 4.4369 4.46284C3.2918 4.46284 2.36395 5.39062 2.3671 6.57144L4.44818 8.62015M4.44818 8.62015C3.2901 8.62267 2.37024 7.70572 2.3671 6.57148L4.44818 8.62015Z" stroke="#054580" stroke-width="1.6"/>
<path d="M21.6356 6.53762L21.6356 6.53722C21.6306 5.38701 20.7128 4.46916 19.5684 4.46287L21.6356 6.53762ZM21.6356 6.53762C21.6413 7.6976 20.7205 8.62549 19.5502 8.62801H19.5502M21.6356 6.53762L19.5502 8.62801M19.5502 8.62801C18.4219 8.6305 17.4862 7.69854 17.4856 6.55674L17.4856 6.49527M19.5502 8.62801L17.4856 6.49527M17.4856 6.49527C17.5172 5.35632 18.4422 4.45676 19.5684 4.46287L17.4856 6.49527Z" stroke="#054580" stroke-width="1.6"/>
</svg>
