<svg width="24" height="25" viewBox="0 0 24 25" fill="none" xmlns="http://www.w3.org/2000/svg">
<g id="fi-rr-interactive" clip-path="url(#clip0_546_6581)">
<path id="Vector" d="M23.7072 22.8579L22.6302 21.7809L20.9002 20.0539L23.6892 17.2649C23.8079 17.146 23.8948 16.9991 23.9417 16.8378C23.9887 16.6765 23.9942 16.5059 23.9579 16.3419C23.9215 16.1779 23.8444 16.0256 23.7336 15.8993C23.6229 15.7729 23.4821 15.6765 23.3242 15.6189L14.3552 12.3649C13.998 12.2358 13.6113 12.2111 13.2405 12.2937C12.8697 12.3763 12.5301 12.5628 12.2615 12.8314C11.9928 13.0999 11.8062 13.4394 11.7234 13.8102C11.6407 14.181 11.6652 14.5676 11.7942 14.9249L15.0572 23.8939C15.1145 24.0519 15.2107 24.1929 15.3369 24.3039C15.4631 24.4149 15.6152 24.4923 15.7792 24.5289C15.8505 24.5444 15.9233 24.5521 15.9962 24.5519C16.2614 24.5519 16.5157 24.4465 16.7032 24.2589L19.4892 21.4649L21.2162 23.1919L22.2932 24.2689C22.4818 24.4511 22.7344 24.5519 22.9966 24.5496C23.2588 24.5473 23.5096 24.4422 23.6951 24.2568C23.8805 24.0713 23.9856 23.8205 23.9879 23.5583C23.9902 23.2961 23.8894 23.0435 23.7072 22.8549V22.8579ZM16.4002 21.7299L13.6762 14.2399L21.1662 16.9639L16.4002 21.7299Z" fill="#374957"/>
<path id="Vector_2" d="M10 20.5654C8.02219 20.5654 6.08879 19.9789 4.4443 18.8801C2.79981 17.7813 1.51809 16.2195 0.761209 14.3923C0.00433284 12.565 -0.193701 10.5543 0.192152 8.61453C0.578004 6.67472 1.53041 4.89289 2.92894 3.49437C4.32746 2.09584 6.10929 1.14343 8.0491 0.757581C9.98891 0.371729 11.9996 0.569763 13.8268 1.32664C15.6541 2.08352 17.2159 3.36524 18.3147 5.00973C19.4135 6.65422 20 8.58762 20 10.5654C20 10.8307 19.8946 11.085 19.7071 11.2725C19.5196 11.4601 19.2652 11.5654 19 11.5654C18.7348 11.5654 18.4804 11.4601 18.2929 11.2725C18.1054 11.085 18 10.8307 18 10.5654C18 8.98318 17.5308 7.43647 16.6518 6.12087C15.7727 4.80528 14.5233 3.7799 13.0615 3.1744C11.5997 2.5689 9.99113 2.41047 8.43928 2.71915C6.88743 3.02783 5.46197 3.78976 4.34315 4.90858C3.22433 6.0274 2.4624 7.45286 2.15372 9.00471C1.84504 10.5566 2.00347 12.1651 2.60897 13.6269C3.21447 15.0887 4.23985 16.3381 5.55544 17.2172C6.87104 18.0962 8.41775 18.5654 10 18.5654C10.2652 18.5654 10.5196 18.6708 10.7071 18.8583C10.8946 19.0459 11 19.3002 11 19.5654C11 19.8307 10.8946 20.085 10.7071 20.2725C10.5196 20.4601 10.2652 20.5654 10 20.5654Z" fill="#374957"/>
<path id="Vector_3" d="M8.08391 16.1856C7.95249 16.1857 7.82234 16.1599 7.70091 16.1096C6.78977 15.7312 5.986 15.1339 5.3608 14.3707C4.73559 13.6074 4.30825 12.7018 4.1166 11.734C3.92496 10.7662 3.97493 9.76605 4.2621 8.82216C4.54926 7.87827 5.06476 7.01976 5.76293 6.32265C6.4611 5.62555 7.3204 5.11137 8.26473 4.82565C9.20906 4.53993 10.2093 4.49149 11.1768 4.68462C12.1443 4.87774 13.0493 5.30647 13.8116 5.93284C14.5738 6.55921 15.1699 7.36389 15.5469 8.27561C15.5998 8.39742 15.6278 8.52854 15.6295 8.66131C15.6311 8.79408 15.6063 8.92584 15.5564 9.04891C15.5066 9.17199 15.4328 9.28391 15.3392 9.37814C15.2457 9.47237 15.1343 9.54703 15.0116 9.59776C14.8889 9.64849 14.7573 9.67427 14.6245 9.67361C14.4917 9.67294 14.3604 9.64584 14.2382 9.59388C14.116 9.54193 14.0054 9.46616 13.9128 9.371C13.8202 9.27583 13.7475 9.16318 13.6989 9.03961C13.447 8.43235 13.0492 7.89655 12.5409 7.47962C12.0326 7.06269 11.4293 6.77749 10.7845 6.64925C10.1396 6.52102 9.47314 6.5537 8.84395 6.74441C8.21477 6.93512 7.64229 7.27798 7.17718 7.74265C6.71207 8.20731 6.36866 8.77946 6.17735 9.40846C5.98604 10.0375 5.95272 10.7039 6.08034 11.3489C6.20796 11.9938 6.49258 12.5974 6.90902 13.1061C7.32547 13.6148 7.86089 14.0131 8.46791 14.2656C8.68184 14.3541 8.85842 14.5142 8.96752 14.7184C9.07663 14.9226 9.1115 15.1583 9.06618 15.3853C9.02087 15.6124 8.89818 15.8167 8.71904 15.9633C8.53991 16.11 8.31543 16.19 8.08391 16.1896V16.1856Z" fill="#374957"/>
</g>
<defs>
<clipPath id="clip0_546_6581">
<rect width="24" height="24" fill="white" transform="translate(0 0.56543)"/>
</clipPath>
</defs>
</svg>
