<svg width="35" height="34" viewBox="0 0 35 34" fill="none" xmlns="http://www.w3.org/2000/svg">
<g id="Broken / Users / Users Group Two Rounded">
<circle id="Vector" cx="17.5022" cy="8.83542" r="5.52573" stroke="#1C274C" stroke-width="2.07215"/>
<path id="Vector_2" d="M25.7908 12.9798C28.0797 12.9798 29.9351 11.4336 29.9351 9.52621C29.9351 7.61885 28.0797 6.07263 25.7908 6.07263" stroke="#1C274C" stroke-width="2.07215" stroke-linecap="round"/>
<path id="Vector_3" d="M9.21365 12.9798C6.92481 12.9798 5.06935 11.4336 5.06935 9.52621C5.06935 7.61885 6.92481 6.07263 9.21365 6.07263" stroke="#1C274C" stroke-width="2.07215" stroke-linecap="round"/>
<path id="Vector_4" d="M24.682 21.2684C25.3872 22.0811 25.7908 23.0247 25.7908 24.0312C25.7908 27.083 22.0799 29.557 17.5022 29.557C12.9246 29.557 9.21365 27.083 9.21365 24.0312C9.21365 20.9794 12.9246 18.5055 17.5022 18.5055C17.9729 18.5055 18.4344 18.5316 18.8837 18.5819" stroke="#1C274C" stroke-width="2.07215" stroke-linecap="round"/>
<path id="Vector_5" d="M28.5537 26.7941C30.9771 26.2627 32.698 24.9169 32.698 23.3405C32.698 21.7642 30.9771 20.4184 28.5537 19.887" stroke="#1C274C" stroke-width="2.07215" stroke-linecap="round"/>
<path id="Vector_6" d="M6.45078 26.7941C4.02741 26.2627 2.30648 24.9169 2.30648 23.3405C2.30648 21.7642 4.02741 20.4184 6.45078 19.887" stroke="#1C274C" stroke-width="2.07215" stroke-linecap="round"/>
</g>
</svg>
