<svg width="37" height="37" viewBox="0 0 37 37" fill="none" xmlns="http://www.w3.org/2000/svg">
<g id="Line Duotone / Users / User Id">
<circle id="Vector" cx="14.0252" cy="13.8875" r="3.04118" stroke="#1C274C" stroke-width="2.28088"/>
<path id="Vector_2" d="M20.1075 23.011C20.1075 24.6906 20.1075 26.0522 14.0251 26.0522C7.94278 26.0522 7.94278 24.6906 7.94278 23.011C7.94278 21.3314 10.6659 19.9698 14.0251 19.9698C17.3843 19.9698 20.1075 21.3314 20.1075 23.011Z" stroke="#1C274C" stroke-width="2.28088"/>
<path id="Vector_3" opacity="0.5" d="M3.38101 18.4493C3.38101 12.7148 3.38101 9.84751 5.16249 8.06603C6.94397 6.28455 9.81123 6.28455 15.5457 6.28455H21.6281C27.3626 6.28455 30.2298 6.28455 32.0113 8.06603C33.7928 9.84751 33.7928 12.7148 33.7928 18.4493C33.7928 24.1838 33.7928 27.051 32.0113 28.8325C30.2298 30.614 27.3626 30.614 21.6281 30.614H15.5457C9.81122 30.614 6.94397 30.614 5.16249 28.8325C3.38101 27.051 3.38101 24.1838 3.38101 18.4493Z" stroke="#1C274C" stroke-width="2.28088"/>
<path id="Vector_4" d="M29.231 18.4492H23.1487" stroke="#1C274C" stroke-width="2.28088" stroke-linecap="round"/>
<path id="Vector_5" d="M29.231 13.8875H21.6281" stroke="#1C274C" stroke-width="2.28088" stroke-linecap="round"/>
<path id="Vector_6" opacity="0.9" d="M29.231 23.011H24.6693" stroke="#1C274C" stroke-width="2.28088" stroke-linecap="round"/>
</g>
</svg>
