<svg width="38" height="37" viewBox="0 0 38 37" fill="none" xmlns="http://www.w3.org/2000/svg">
<g id="Outline / Users / User Check">
<g id="Union">
<path fill-rule="evenodd" clip-rule="evenodd" d="M19 1.92706C14.8464 1.92706 11.4792 5.20564 11.4792 9.24998C11.4792 13.2943 14.8464 16.5729 19 16.5729C23.1536 16.5729 26.5208 13.2943 26.5208 9.24998C26.5208 5.20564 23.1536 1.92706 19 1.92706ZM13.8542 9.24998C13.8542 6.4828 16.158 4.23956 19 4.23956C21.842 4.23956 24.1458 6.4828 24.1458 9.24998C24.1458 12.0172 21.842 14.2604 19 14.2604C16.158 14.2604 13.8542 12.0172 13.8542 9.24998Z" fill="#1C274C"/>
<path d="M31.4379 22.4665C31.9085 22.9113 31.9198 23.6433 31.463 24.1015L28.5605 27.0136C28.326 27.2488 27.9999 27.3761 27.6635 27.3637C27.327 27.3513 27.0117 27.2005 26.7961 26.9486L25.4764 25.407C25.0565 24.9164 25.1245 24.1873 25.6283 23.7785C26.1321 23.3696 26.8809 23.4358 27.3008 23.9264L27.7754 24.4808L29.7587 22.491C30.2154 22.0328 30.9672 22.0218 31.4379 22.4665Z" fill="#1C274C"/>
<path fill-rule="evenodd" clip-rule="evenodd" d="M23.3932 19.2907C22.0114 19.0273 20.5334 18.8854 19 18.8854C15.3369 18.8854 11.962 19.6961 9.46113 21.0658C6.99752 22.4151 5.14583 24.4602 5.14583 26.9791L5.14573 27.1363C5.14394 28.9275 5.1417 31.1755 7.16682 32.7813C8.16348 33.5715 9.55776 34.1335 11.4415 34.5047C13.3305 34.877 15.7925 35.0729 19 35.0729C23.5412 35.0729 26.6157 34.6814 28.6894 33.9298C30.5559 33.2532 31.6623 32.2618 32.2531 31.014C34.5051 29.7489 36.0208 27.3801 36.0208 24.6666C36.0208 20.6223 32.6536 17.3437 28.5 17.3437C26.5286 17.3437 24.7344 18.0823 23.3932 19.2907ZM23.3542 24.6666C23.3542 21.8995 25.658 19.6562 28.5 19.6562C31.342 19.6562 33.6458 21.8995 33.6458 24.6666C33.6458 27.4338 31.342 29.6771 28.5 29.6771C25.658 29.6771 23.3542 27.4338 23.3542 24.6666ZM21.7799 21.3752C21.2676 22.3647 20.9792 23.4829 20.9792 24.6666C20.9792 28.3501 23.7723 31.3984 27.4088 31.913C25.7135 32.4314 23.0818 32.7604 19 32.7604C15.8741 32.7604 13.5862 32.568 11.9127 32.2382C10.2339 31.9073 9.25319 31.4533 8.66652 30.9881C7.58467 30.1303 7.52083 28.9953 7.52083 26.9791C7.52083 25.6667 8.50468 24.2429 10.6255 23.0814C12.7091 21.9402 15.6675 21.1979 19 21.1979C19.9596 21.1979 20.8904 21.2595 21.7799 21.3752Z" fill="#1C274C"/>
</g>
</g>
</svg>
